<?xml version="1.0" encoding="UTF-8" standalone="no"?>
<!-- Generator: Adobe Illustrator 25.0.0, SVG Export Plug-In . SVG Version: 6.00 Build 0)  -->

<svg
   version="1.1"
   id="Capa_1"
   x="0px"
   y="0px"
   viewBox="0 0 510.01074 330.27142"
   xml:space="preserve"
   width="510.01074"
   height="330.27142"
   xmlns="http://www.w3.org/2000/svg"
   xmlns:svg="http://www.w3.org/2000/svg"><defs
   id="defs2" />
<g
   id="g2"
   transform="translate(-521.99988,-110.72916)">
	<path
   d="M 394.667,512 H 117.333 C 52.561,511.929 0.071,459.439 0,394.667 V 117.333 C 0.071,52.561 52.561,0.071 117.333,0 H 394.666 C 459.439,0.071 511.929,52.561 512,117.333 V 394.666 C 511.929,459.439 459.439,511.929 394.667,512 Z M 117.333,64 C 87.878,64 64,87.878 64,117.333 V 394.666 C 64,424.122 87.878,448 117.333,448 H 394.666 C 424.122,448 448,424.122 448,394.667 V 117.333 C 448,87.878 424.122,64 394.667,64 Z"
   id="path1" />
	<path
   d="m 206.229,379.456 c -13.462,0.009 -26.368,-5.368 -35.84,-14.933 l -63.723,-63.616 c -12.501,-12.493 -12.507,-32.754 -0.014,-45.255 0.005,-0.005 0.01,-0.01 0.014,-0.015 v 0 c 12.496,-12.492 32.752,-12.492 45.248,0 l 54.315,54.293 153.856,-153.856 c 12.496,-12.492 32.752,-12.492 45.248,0 v 0 c 12.501,12.493 12.507,32.754 0.014,45.255 -0.005,0.005 -0.01,0.01 -0.014,0.014 L 242.048,364.629 c -9.482,9.525 -22.379,14.864 -35.819,14.827 z"
   id="path2" />
<path
   style="stroke-linecap:round;stroke-linejoin:round;paint-order:markers fill stroke"
   d="M 698.87891,110.90234 A 16.0016,16.0016 0 0 0 691,114.42188 l -108.74609,90.34374 -0.0527,0.043 a 16,16 0 0 0 -4.78711,6.78321 16.0016,16.0016 0 0 0 -0.01,0.0137 l -54.42578,148.33789 a 16.0016,16.0016 0 0 0 12.29687,21.27734 l 345.8418,59.75782 a 16.0016,16.0016 0 0 0 3.58203,-0.21485 16,16 0 0 0 2.1875,0.1543 16,16 0 0 0 1.12695,-0.35156 16.0016,16.0016 0 0 0 0.80469,-0.25391 16,16 0 0 0 5.57031,-3.19336 16.0016,16.0016 0 0 0 0.37891,-0.21875 l 132.16812,-123.5274 a 16.0016,16.0016 0 0 0 3.7071,-18.16407 L 967.17773,151.77734 a 16.0016,16.0016 0 0 0 -0.0137,-0.0156 16.0016,16.0016 0 0 0 -6.07812,-6.66211 16.0016,16.0016 0 0 0 -1.59766,-0.98242 16.0016,16.0016 0 0 0 -7.75586,-1.84571 c -130.43116,6.6433 -163.22594,3.87973 -244.29297,-30.2871 a 16.0016,16.0016 0 0 0 -8.56054,-1.08204 z m 5.27148,34.19922 c 68.41964,27.87553 112.11931,34.25653 207.86328,30.91211 l -67.52539,67.19727 c -80.82656,6.36102 -148.85376,-6.13357 -220.50976,-31.50782 z m 243.18164,40.91016 49.44531,111.74805 -102.73047,96.01367 -25.14453,-129.71485 z m -345.40234,51.64844 c 76.20412,28.14713 150.37913,43.53863 236.63867,38.06054 l 25.1543,129.77735 -304.09571,-52.54493 z"
   id="path10" /><path
   d="m 669.65966,213.47563 c 18.17649,-14.05812 27.08759,-21.77428 43.06416,-36.81103 3.01781,-2.83635 6.23201,-5.85835 9.37086,-8.68453 1.79137,-1.61297 3.62789,-3.22537 5.51654,-4.81493 9.69645,3.89612 19.08053,7.38797 29.01393,10.40778 3.0777,0.93475 6.16901,1.81132 9.29319,2.62883 -3.0929,2.23182 -6.10608,4.5749 -9.05189,6.96264 -3.69347,2.99667 -7.4696,6.22628 -11.12946,9.41412 3.83151,-0.3872 7.69679,-0.78127 11.59309,-1.1877 6.27205,-0.65498 12.61146,-1.3501 19.05707,-2.11788 12.65452,-1.5032 25.51738,-3.23012 38.95714,-5.65559 3.76197,0.1797 7.53712,0.29013 11.37174,0.34994 0,0 0,0 0,0 7.42626,0.11938 14.01077,-3.6e-4 21.6532,-0.16631 0,0 10e-6,0 10e-6,0 5.47968,-0.0992 11.05694,-0.32434 16.46809,-0.29999 -5.53392,1.48691 -10.29442,2.85569 -15.82834,4.3426 0,0 0,0 -1e-5,0 -7.39162,2.00071 -13.73686,3.66992 -21.04394,5.48726 0,0 0,0 0,0 -12.75955,3.18195 -24.55883,5.88389 -36.72847,8.48064 12.08969,10.80185 23.24714,22.11447 32.00602,33.93464 0.42192,0.56931 0.83752,1.14001 1.24315,1.70908 0.026,6e-5 -1.7111,-0.006 -1.68513,-0.006 -16.43327,-0.0699 -31.47619,-0.60023 -47.34671,-2.68563 0.002,0.004 -0.39054,-0.57465 -0.38811,-0.57108 -5.91564,-8.67641 -11.06182,-15.74974 -17.45684,-23.61033 -1.3287,-1.63592 -2.66162,-3.24506 -4.01982,-4.86034 -9.0825,1.30185 -17.74551,2.43609 -26.55721,3.48545 -1.35427,1.22456 -2.7191,2.46419 -4.08453,3.71177 -3.34722,3.05813 -6.66913,6.13515 -10.05576,9.34193 -0.50345,0.47737 -1.00672,0.95608 -1.51064,1.43695 -9.93765,-2.4726 -31.10687,-7.91656 -41.72133,-10.22263 z"
   id="text10"
   style="font-weight:900;font-size:120px;line-height:1.2;font-family:'Noto Sans TC';-inkscape-font-specification:'Noto Sans TC Heavy';letter-spacing:0px;word-spacing:0px;stroke-width:31.2807;stroke-linecap:round;stroke-linejoin:round;paint-order:markers fill stroke"
   aria-label="K"
   transform="matrix(1.0248656,0,0,1.0211289,-22.415343,-4.8849609)" /></g>















</svg>
